<svg width="32" height="32" viewBox="0 0 32 32" fill="none" xmlns="http://www.w3.org/2000/svg">
<path d="M29.3334 29.3334H2.66675" stroke="white" stroke-width="2" stroke-linecap="round"/>
<path d="M28 29.3334V19.3334C28 18.8029 27.7893 18.2942 27.4142 17.9191C27.0391 17.5441 26.5304 17.3334 26 17.3334H22C21.4696 17.3334 20.9609 17.5441 20.5858 17.9191C20.2107 18.2942 20 18.8029 20 19.3334V29.3334V6.66669C20 4.78135 20 3.83869 19.4133 3.25335C18.8293 2.66669 17.8867 2.66669 16 2.66669C14.1147 2.66669 13.172 2.66669 12.5867 3.25335C12 3.83735 12 4.78002 12 6.66669V29.3334V12.6667C12 12.1363 11.7893 11.6275 11.4142 11.2525C11.0391 10.8774 10.5304 10.6667 10 10.6667H6C5.46957 10.6667 4.96086 10.8774 4.58579 11.2525C4.21071 11.6275 4 12.1363 4 12.6667V29.3334" stroke="white" stroke-width="2"/>
</svg>
