<svg width="32" height="32" viewBox="0 0 32 32" fill="none" xmlns="http://www.w3.org/2000/svg">
<path d="M27.125 22.875H24.9281C24.7781 22.875 24.6375 22.9407 24.5437 23.0563C24.325 23.3219 24.0906 23.5782 23.8437 23.8219C22.834 24.8326 21.638 25.6381 20.3218 26.1938C18.9583 26.7697 17.4927 27.0652 16.0125 27.0625C14.5156 27.0625 13.0656 26.7688 11.7031 26.1938C10.3869 25.6381 9.19092 24.8326 8.18121 23.8219C7.1697 22.8146 6.36314 21.6207 5.80621 20.3063C5.22809 18.9438 4.93746 17.4969 4.93746 16C4.93746 14.5032 5.23121 13.0563 5.80621 11.6938C6.36246 10.3782 7.16246 9.1938 8.18121 8.17817C9.19996 7.16255 10.3843 6.36255 11.7031 5.8063C13.0656 5.2313 14.5156 4.93755 16.0125 4.93755C17.5093 4.93755 18.9593 5.22817 20.3218 5.8063C21.6406 6.36255 22.825 7.16255 23.8437 8.17817C24.0906 8.42505 24.3218 8.6813 24.5437 8.9438C24.6375 9.05942 24.7812 9.12505 24.9281 9.12505H27.125C27.3218 9.12505 27.4437 8.9063 27.3343 8.74067C24.9375 5.01567 20.7437 2.55005 15.9781 2.56255C8.49059 2.5813 2.48746 8.65942 2.56246 16.1375C2.63746 23.4969 8.63121 29.4375 16.0125 29.4375C20.7656 29.4375 24.9406 26.975 27.3343 23.2594C27.4406 23.0938 27.3218 22.875 27.125 22.875ZM29.9031 15.8032L25.4687 12.3032C25.3031 12.1719 25.0625 12.2907 25.0625 12.5V14.875H15.25C15.1125 14.875 15 14.9875 15 15.125V16.875C15 17.0125 15.1125 17.125 15.25 17.125H25.0625V19.5C25.0625 19.7094 25.3062 19.8282 25.4687 19.6969L29.9031 16.1969C29.933 16.1735 29.9571 16.1437 29.9738 16.1095C29.9904 16.0754 29.999 16.038 29.999 16C29.999 15.9621 29.9904 15.9247 29.9738 15.8905C29.9571 15.8564 29.933 15.8266 29.9031 15.8032Z" fill="#F2E6F6"/>
</svg>
